<svg width="70" height="70" viewBox="0 0 261 158" fill="none" xmlns="http://www.w3.org/2000/svg">
<path d="M168.233 79.7514L173.101 90.9764C174.001 93.0454 176.478 94.024 178.639 93.1644C180.804 92.3136 181.83 89.9443 180.933 87.8742L176.066 76.6528L168.233 79.7514Z" fill="#333333"/>
<path d="M171.481 87.2338L179.313 84.135L171.481 87.2338Z" fill="#333333"/>
<path d="M157.963 56.0586L169.039 60.4409L157.963 56.0586Z" fill="#333333"/>
<path d="M163.99 33.3047C163.99 39.2697 158.931 44.1042 152.693 44.1042C146.448 44.1042 141.388 39.2697 141.388 33.3047C141.388 27.3408 146.448 22.5088 152.693 22.5088C158.93 22.5088 163.99 27.3408 163.99 33.3047Z" fill="#333333"/>
<path d="M158.338 33.3054C158.338 36.2897 155.81 38.7076 152.691 38.7076C149.568 38.7076 147.034 36.2897 147.034 33.3054C147.034 30.3236 149.568 27.9058 152.691 27.9058C155.81 27.9044 158.338 30.3236 158.338 33.3054Z" fill="#333333"/>
<path d="M144.765 41.0032L129.304 76.6548L125.429 92.6536L128.039 93.6868L137.138 79.7533L139.303 74.7669C137.614 70.8684 139.549 66.3986 143.629 64.7868L152.594 44.1017C149.545 44.0775 146.786 42.9008 144.765 41.0032Z" fill="#333333"/>
<path d="M160.612 40.9993C158.589 42.8993 155.828 44.0761 152.779 44.0992L166.078 74.7593L173.907 71.6621L160.612 40.9993Z" fill="#333333"/>
<path d="M156.927 17.109V4.95889C156.926 2.71973 155.022 0.908447 152.689 0.908447C150.348 0.908447 148.451 2.71728 148.449 4.95889L148.451 17.109H156.927Z" fill="#333333"/>
<path d="M152.692 22.5099C153.414 22.5099 154.122 22.5792 154.808 22.7032V17.1101H150.571V22.7032C151.258 22.5779 151.963 22.5099 152.692 22.5099Z" fill="#333333"/>
<path d="M93.8409 98.1547H79.7432V0.906494H93.8435C96.9587 0.906494 99.4826 3.3268 99.4826 6.31114V92.7548H99.4814C99.48 95.7394 96.9561 98.1547 93.8409 98.1547Z" fill="#333333"/>
<path d="M93.1384 9.01137C94.3066 9.01137 95.2539 8.1041 95.2539 6.98493C95.2539 5.86576 94.3066 4.9585 93.1384 4.9585C91.9702 4.9585 91.0232 5.86576 91.0232 6.98493C91.0232 8.1041 91.9702 9.01137 93.1384 9.01137Z" fill="#333333"/>
<path d="M109.352 58.314C109.352 59.4288 110.299 60.3392 111.467 60.3392C112.635 60.3392 113.582 59.4288 113.582 58.314C113.582 59.4288 114.531 60.3392 115.697 60.3392C116.866 60.3392 117.813 59.4288 117.813 58.314C117.813 59.4288 116.866 60.3392 115.697 60.3392C114.531 60.3392 113.582 59.4288 113.582 58.314C113.582 59.4288 112.635 60.3392 111.467 60.3392C110.299 60.3392 109.352 59.4288 109.352 58.314Z" fill="#333333"/>
<path d="M112.172 0.906494C110.617 0.906494 109.352 2.11847 109.352 3.61124V3.61002V60.3392L113.581 76.547L117.812 60.3392V3.60882V3.61002C117.812 2.11968 116.548 0.907709 114.991 0.907709L112.172 0.906494Z" fill="#333333"/>
</svg>
